HIERARCHY
ROOT mixamorig:Hips
{
	OFFSET 0.000000 201.639420 0.000000
	CHANNELS 6 Xposition Yposition Zposition Xrotation Yrotation Zrotation
	JOINT mixamorig:Spine
	{
		OFFSET 0.006200 19.524994 -2.481800
		CHANNELS 3 Xrotation Yrotation Zrotation
		JOINT mixamorig:Spine1
		{
			OFFSET -0.000900 22.835007 -2.825400
			CHANNELS 3 Xrotation Yrotation Zrotation
			JOINT mixamorig:Spine2
			{
				OFFSET -0.020600 26.552490 -3.193300
				CHANNELS 3 Xrotation Yrotation Zrotation
				JOINT mixamorig:Neck
				{
					OFFSET -0.060000 30.701813 1.352200
					CHANNELS 3 Xrotation Yrotation Zrotation
					JOINT mixamorig:Head
					{
						OFFSET -0.087200 22.547607 3.670900
						CHANNELS 3 Xrotation Yrotation Zrotation
						JOINT mixamorig:HeadTop_End
						{
							OFFSET -0.830600 40.355194 7.893500
							CHANNELS 3 Xrotation Yrotation Zrotation
							End Site
							{
								OFFSET 0.000000 30.592346 0.000000
							}
						}
						JOINT mixamorig:RightEye
						{
							OFFSET -6.302100 18.118591 16.197100
							CHANNELS 3 Xrotation Yrotation Zrotation
							End Site
							{
								OFFSET 0.000000 30.592346 0.000000
							}
						}
						JOINT mixamorig:LeftEye
						{
							OFFSET 6.741500 18.382690 16.401899
							CHANNELS 3 Xrotation Yrotation Zrotation
							End Site
							{
								OFFSET 0.000000 30.592346 0.000000
							}
						}
					}
				}
				JOINT mixamorig:LeftShoulder
				{
					OFFSET 11.924900 18.230499 1.425400
					CHANNELS 3 Xrotation Yrotation Zrotation
					JOINT mixamorig:LeftArm
					{
						OFFSET 25.435989 -0.697632 -5.229300
						CHANNELS 3 Xrotation Yrotation Zrotation
						JOINT mixamorig:LeftForeArm
						{
							OFFSET 54.684776 0.000000 0.000000
							CHANNELS 3 Xrotation Yrotation Zrotation
							JOINT mixamorig:LeftHand
							{
								OFFSET 55.098175 0.000000 0.000000
								CHANNELS 3 Xrotation Yrotation Zrotation
								JOINT mixamorig:LeftHandMiddle1
								{
									OFFSET 23.369751 0.000000 0.000000
									CHANNELS 3 Xrotation Yrotation Zrotation
									JOINT mixamorig:LeftHandMiddle2
									{
										OFFSET 6.378677 0.000000 0.000000
										CHANNELS 3 Xrotation Yrotation Zrotation
										JOINT mixamorig:LeftHandMiddle3
										{
											OFFSET 6.148331 0.000000 0.000000
											CHANNELS 3 Xrotation Yrotation Zrotation
											JOINT mixamorig:LeftHandMiddle4
											{
												OFFSET 6.582504 0.000000 0.000000
												CHANNELS 3 Xrotation Yrotation Zrotation
												End Site
												{
													OFFSET -1.168900 6.395691 1.028606
												}
											}
										}
									}
								}
								JOINT mixamorig:LeftHandThumb1
								{
									OFFSET 7.235672 -3.848206 5.434273
									CHANNELS 3 Xrotation Yrotation Zrotation
									JOINT mixamorig:LeftHandThumb2
									{
										OFFSET 6.568451 -3.792297 3.792300
										CHANNELS 3 Xrotation Yrotation Zrotation
										JOINT mixamorig:LeftHandThumb3
										{
											OFFSET 6.063080 -3.500519 3.500518
											CHANNELS 3 Xrotation Yrotation Zrotation
											JOINT mixamorig:LeftHandThumb4
											{
												OFFSET 4.793182 -2.767334 2.767349
												CHANNELS 3 Xrotation Yrotation Zrotation
												End Site
												{
													OFFSET 0.101639 6.054260 1.275483
												}
											}
										}
									}
								}
								JOINT mixamorig:LeftHandIndex1
								{
									OFFSET 23.101074 -0.309540 4.992809
									CHANNELS 3 Xrotation Yrotation Zrotation
									JOINT mixamorig:LeftHandIndex2
									{
										OFFSET 6.226883 0.000000 0.000000
										CHANNELS 3 Xrotation Yrotation Zrotation
										JOINT mixamorig:LeftHandIndex3
										{
											OFFSET 6.094330 0.000000 0.000000
											CHANNELS 3 Xrotation Yrotation Zrotation
											JOINT mixamorig:LeftHandIndex4
											{
												OFFSET 5.482605 0.000000 0.000000
												CHANNELS 3 Xrotation Yrotation Zrotation
												End Site
												{
													OFFSET -1.427902 5.233032 0.797164
												}
											}
										}
									}
								}
								JOINT mixamorig:LeftHandRing1
								{
									OFFSET 22.299240 0.021149 -3.964172
									CHANNELS 3 Xrotation Yrotation Zrotation
									JOINT mixamorig:LeftHandRing2
									{
										OFFSET 6.321869 0.000000 0.000000
										CHANNELS 3 Xrotation Yrotation Zrotation
										JOINT mixamorig:LeftHandRing3
										{
											OFFSET 5.899796 0.000000 0.000000
											CHANNELS 3 Xrotation Yrotation Zrotation
											JOINT mixamorig:LeftHandRing4
											{
												OFFSET 6.517899 0.000000 0.000000
												CHANNELS 3 Xrotation Yrotation Zrotation
												End Site
												{
													OFFSET -1.637299 6.232208 0.980890
												}
											}
										}
									}
								}
								JOINT mixamorig:LeftHandPinky1
								{
									OFFSET 20.463791 -0.302338 -8.562233
									CHANNELS 3 Xrotation Yrotation Zrotation
									JOINT mixamorig:LeftHandPinky2
									{
										OFFSET 6.908646 0.000000 0.000000
										CHANNELS 3 Xrotation Yrotation Zrotation
										JOINT mixamorig:LeftHandPinky3
										{
											OFFSET 4.622849 0.000000 0.000000
											CHANNELS 3 Xrotation Yrotation Zrotation
											JOINT mixamorig:LeftHandPinky4
											{
												OFFSET 5.216080 0.000000 0.000000
												CHANNELS 3 Xrotation Yrotation Zrotation
												End Site
												{
													OFFSET -0.606308 5.116241 0.814926
												}
											}
										}
									}
								}
							}
						}
					}
				}
				JOINT mixamorig:RightShoulder
				{
					OFFSET -12.001300 18.284088 1.348900
					CHANNELS 3 Xrotation Yrotation Zrotation
					JOINT mixamorig:RightArm
					{
						OFFSET -25.308500 -0.751312 -5.164599
						CHANNELS 3 Xrotation Yrotation Zrotation
						JOINT mixamorig:RightForeArm
						{
							OFFSET -54.684429 0.000000 0.000000
							CHANNELS 3 Xrotation Yrotation Zrotation
							JOINT mixamorig:RightHand
							{
								OFFSET -55.150291 0.000000 0.000000
								CHANNELS 3 Xrotation Yrotation Zrotation
								JOINT mixamorig:RightHandMiddle1
								{
									OFFSET -23.317566 0.000000 0.000000
									CHANNELS 3 Xrotation Yrotation Zrotation
									JOINT mixamorig:RightHandMiddle2
									{
										OFFSET -6.378403 0.000000 0.000000
										CHANNELS 3 Xrotation Yrotation Zrotation
										JOINT mixamorig:RightHandMiddle3
										{
											OFFSET -6.148193 0.000000 0.000000
											CHANNELS 3 Xrotation Yrotation Zrotation
											JOINT mixamorig:RightHandMiddle4
											{
												OFFSET -6.583389 0.000000 0.000000
												CHANNELS 3 Xrotation Yrotation Zrotation
												End Site
												{
													OFFSET 1.171692 6.395905 1.029786
												}
											}
										}
									}
								}
								JOINT mixamorig:RightHandThumb1
								{
									OFFSET -7.190521 -3.860474 5.435846
									CHANNELS 3 Xrotation Yrotation Zrotation
									JOINT mixamorig:RightHandThumb2
									{
										OFFSET -6.567429 -3.791718 3.791708
										CHANNELS 3 Xrotation Yrotation Zrotation
										JOINT mixamorig:RightHandThumb3
										{
											OFFSET -6.062469 -3.500153 3.500166
											CHANNELS 3 Xrotation Yrotation Zrotation
											JOINT mixamorig:RightHandThumb4
											{
												OFFSET -4.792618 -2.767029 2.767022
												CHANNELS 3 Xrotation Yrotation Zrotation
												End Site
												{
													OFFSET -0.100327 6.053253 1.276754
												}
											}
										}
									}
								}
								JOINT mixamorig:RightHandIndex1
								{
									OFFSET -23.048981 -0.310791 4.992554
									CHANNELS 3 Xrotation Yrotation Zrotation
									JOINT mixamorig:RightHandIndex2
									{
										OFFSET -6.227539 0.000000 0.000000
										CHANNELS 3 Xrotation Yrotation Zrotation
										JOINT mixamorig:RightHandIndex3
										{
											OFFSET -6.095047 0.000000 0.000000
											CHANNELS 3 Xrotation Yrotation Zrotation
											JOINT mixamorig:RightHandIndex4
											{
												OFFSET -5.484772 0.000000 0.000000
												CHANNELS 3 Xrotation Yrotation Zrotation
												End Site
												{
													OFFSET 1.420593 5.237305 0.797056
												}
											}
										}
									}
								}
								JOINT mixamorig:RightHandRing1
								{
									OFFSET -22.246323 0.020569 -3.963762
									CHANNELS 3 Xrotation Yrotation Zrotation
									JOINT mixamorig:RightHandRing2
									{
										OFFSET -6.322128 0.000000 0.000000
										CHANNELS 3 Xrotation Yrotation Zrotation
										JOINT mixamorig:RightHandRing3
										{
											OFFSET -5.900024 0.000000 0.000000
											CHANNELS 3 Xrotation Yrotation Zrotation
											JOINT mixamorig:RightHandRing4
											{
												OFFSET -6.518356 0.000000 0.000000
												CHANNELS 3 Xrotation Yrotation Zrotation
												End Site
												{
													OFFSET 1.636398 6.232697 0.982186
												}
											}
										}
									}
								}
								JOINT mixamorig:RightHandPinky1
								{
									OFFSET -20.411011 -0.303314 -8.561701
									CHANNELS 3 Xrotation Yrotation Zrotation
									JOINT mixamorig:RightHandPinky2
									{
										OFFSET -6.907349 0.000000 0.000000
										CHANNELS 3 Xrotation Yrotation Zrotation
										JOINT mixamorig:RightHandPinky3
										{
											OFFSET -4.623840 0.000000 0.000000
											CHANNELS 3 Xrotation Yrotation Zrotation
											JOINT mixamorig:RightHandPinky4
											{
												OFFSET -5.218353 0.000000 0.000000
												CHANNELS 3 Xrotation Yrotation Zrotation
												End Site
												{
													OFFSET 0.602097 5.118835 0.816273
												}
											}
										}
									}
								}
							}
						}
					}
				}
			}
		}
	}
	JOINT mixamorig:LeftUpLeg
	{
		OFFSET 18.168400 -13.561905 -0.039000
		CHANNELS 3 Xrotation Yrotation Zrotation
		JOINT mixamorig:LeftLeg
		{
			OFFSET 0.577358 -80.825211 -3.695000
			CHANNELS 3 Xrotation Yrotation Zrotation
			JOINT mixamorig:LeftFoot
			{
				OFFSET -0.577356 -83.370262 -6.520700
				CHANNELS 3 Xrotation Yrotation Zrotation
				JOINT mixamorig:LeftToeBase
				{
					OFFSET 0.750401 -20.798306 25.135401
					CHANNELS 3 Xrotation Yrotation Zrotation
					JOINT mixamorig:LeftToe_End
					{
						OFFSET -0.000500 0.001200 19.917799
						CHANNELS 3 Xrotation Yrotation Zrotation
						End Site
						{
							OFFSET 0.000000 19.917805 0.000000
						}
					}
				}
			}
		}
	}
	JOINT mixamorig:RightUpLeg
	{
		OFFSET -18.162500 -13.585098 -0.041000
		CHANNELS 3 Xrotation Yrotation Zrotation
		JOINT mixamorig:RightLeg
		{
			OFFSET -0.595024 -80.945297 -3.631900
			CHANNELS 3 Xrotation Yrotation Zrotation
			JOINT mixamorig:RightFoot
			{
				OFFSET 0.595024 -83.218193 -6.561200
				CHANNELS 3 Xrotation Yrotation Zrotation
				JOINT mixamorig:RightToeBase
				{
					OFFSET -0.753601 -20.807106 25.115000
					CHANNELS 3 Xrotation Yrotation Zrotation
					JOINT mixamorig:RightToe_End
					{
						OFFSET 0.000299 0.001700 19.918200
						CHANNELS 3 Xrotation Yrotation Zrotation
						End Site
						{
							OFFSET 0.000000 19.918203 0.000000
						}
					}
				}
			}
		}
	}
}
MOTION
Frames: 6
Frame Time: 0.033333
-0.557281 189.319107 -2.082258 -1.846522 11.298321 -2.891218 6.486950 0.890982 1.047723 12.958908 1.660558 2.091441 12.958920 1.660565 2.091440 -15.134641 -7.930937 -1.626155 -14.329904 -5.470206 0.266170 0.000000 -0.000000 -0.000000 0.000000 -0.000000 -0.000000 0.000000 -0.000000 -0.000000 1.354900 5.595962 15.894537 -27.094978 -11.971607 -84.706114 5.678527 -66.535188 5.211408 7.497184 -13.022552 -4.525775 -1.270818 8.660679 -82.840906 -2.607495 -3.017867 -95.167286 -0.000003 -0.000001 0.000006 -0.000003 -0.000000 -0.000000 34.603620 -3.878876 -9.089642 5.303731 17.911572 -5.776110 -0.000005 0.000011 -0.000005 0.000001 -0.000001 0.000003 7.419788 13.839774 -81.378665 3.868643 -4.710180 -93.372996 0.000001 0.000004 -0.000007 -0.000002 -0.000000 0.000000 -6.757953 -1.899757 -85.808199 -8.609560 2.480345 -82.161356 0.000001 0.000004 -0.000008 0.000001 -0.000002 0.000003 -14.181148 -1.470305 -78.847396 -10.277165 -1.139949 -82.879612 -0.000008 0.000013 0.000007 0.000000 0.000000 -0.000000 8.238129 -14.765581 -7.896844 8.882144 19.270732 67.508702 2.415662 79.237154 -2.372402 -6.807408 13.911141 7.693917 0.134846 -8.312436 66.871240 -4.726072 3.468564 109.364046 0.000000 0.000000 -0.000005 0.000000 -0.000005 -0.000004 42.159869 -4.207507 0.232354 -4.734088 -3.866127 6.756875 -0.000010 0.000011 0.000006 -0.000002 0.000001 -0.000002 9.126332 -12.649162 66.647716 0.697661 6.116063 106.570574 0.000007 0.000001 0.000006 0.000001 -0.000001 0.000001 -6.002348 -0.255241 69.617591 -7.471430 -4.458575 96.261906 0.000000 -0.000006 0.000005 -0.000000 0.000002 0.000000 -14.436308 -2.785515 62.653851 -6.469647 -3.014052 97.047091 0.000002 -0.000002 0.000003 0.000000 -0.000000 0.000000 -1.885260 -2.478960 13.757223 34.428327 0.535439 -1.147355 -21.231826 -1.871207 -9.751751 -11.829489 -0.052114 0.493578 0.000000 0.000000 0.000000 -31.008079 -5.046900 -6.544732 28.217963 0.313702 1.168733 5.987722 -12.685250 4.985910 -0.000146 0.009713 -0.000100 0.000000 -0.000001 0.000000 
-0.577066 189.327713 -1.986452 -1.807373 11.498025 -3.033764 6.515167 0.858953 1.098652 13.015238 1.603533 2.189108 13.015234 1.603536 2.189107 -15.479082 -7.362720 -0.927485 -14.358919 -4.352972 -0.555590 -0.000000 0.000000 0.000000 -0.000000 0.000000 0.000000 -0.000000 0.000000 0.000000 1.354628 5.625187 16.016181 -27.194140 -11.800319 -84.889778 5.602111 -66.412702 5.136472 7.353884 -12.520602 -4.252380 -1.265014 8.656961 -82.904604 -2.609295 -3.018898 -95.196001 -0.000006 -0.000001 0.000006 -0.000001 0.000001 -0.000002 34.477285 -4.053644 -9.025728 5.229735 18.016169 -5.756503 -0.000003 0.000010 -0.000004 -0.000001 -0.000000 0.000001 7.406438 13.805372 -81.510269 3.851477 -4.702143 -93.509934 0.000006 0.000001 -0.000006 0.000001 0.000001 -0.000002 -6.762834 -1.898250 -85.833621 -8.604047 2.493223 -82.335724 -0.000000 0.000001 -0.000006 0.000002 0.000001 0.000001 -14.194084 -1.460864 -78.892052 -10.273663 -1.139289 -82.993711 -0.000009 0.000006 0.000005 -0.000001 -0.000002 -0.000000 8.236044 -14.767168 -7.854181 8.776464 19.317153 67.337209 2.401325 79.172028 -2.357761 -7.020172 13.798781 7.830372 0.132687 -8.314552 66.845839 -4.723662 3.468152 109.330353 -0.000001 -0.000000 -0.000008 0.000001 -0.000002 -0.000001 42.174823 -4.076974 0.329485 -4.856229 -3.930998 6.760551 -0.000012 0.000014 -0.000001 -0.000001 -0.000001 -0.000002 9.150842 -12.617907 66.856692 0.700632 6.113892 106.551743 0.000006 0.000003 -0.000000 -0.000000 0.000000 0.000000 -6.010202 -0.257603 69.668298 -7.469252 -4.461459 96.294691 0.000002 -0.000007 0.000004 -0.000001 -0.000001 -0.000000 -14.466452 -2.815817 62.793986 -6.475833 -3.006353 96.978769 0.000001 0.000001 0.000005 -0.000001 -0.000000 -0.000000 -1.676006 -3.436734 13.624635 34.385880 0.531028 -1.146930 -21.280180 -1.028915 -9.664725 -11.813762 -0.108845 0.532586 -0.000000 0.000002 0.000000 -30.924464 -5.259052 -6.497201 28.179549 0.312169 1.169328 5.841495 -12.750208 5.004723 -0.000141 0.009712 -0.032245 -0.000000 0.000000 0.000000 
-0.628271 189.356110 -1.866012 -1.743595 11.831920 -3.172686 6.545055 0.827558 1.167407 13.074680 1.550977 2.321445 13.074679 1.550974 2.321445 -15.890157 -5.971009 -0.127217 -14.431802 -2.384154 -1.414610 -0.000000 -0.000000 -0.000000 -0.000000 -0.000000 -0.000000 -0.000000 -0.000000 -0.000000 1.348123 5.701500 16.221266 -27.441110 -11.718877 -85.175198 5.511745 -66.118417 5.042186 7.420545 -11.788757 -4.056107 -1.267426 8.654719 -82.932075 -2.616696 -3.023128 -95.312865 -0.000003 -0.000003 0.000004 -0.000001 0.000001 -0.000000 34.412867 -4.173194 -9.014700 5.178707 18.079623 -5.735262 -0.000002 0.000010 -0.000004 0.000001 0.000002 -0.000004 7.420889 13.789669 -81.599696 3.838322 -4.697830 -93.634524 0.000002 0.000004 -0.000005 -0.000000 -0.000001 -0.000001 -6.768793 -1.896408 -85.864596 -8.598720 2.505574 -82.502927 0.000004 -0.000000 -0.000006 0.000001 0.000002 0.000000 -14.208324 -1.450439 -78.941312 -10.270162 -1.138641 -83.108451 -0.000007 0.000014 0.000006 -0.000001 -0.000001 -0.000000 8.233944 -14.767851 -7.799459 8.746664 19.484001 66.973037 2.399967 79.165868 -2.356396 -7.456274 13.946138 7.978884 0.132132 -8.315122 66.838995 -4.720474 3.467608 109.285294 0.000000 0.000006 -0.000005 0.000002 0.000002 -0.000001 42.206341 -3.982752 0.422934 -4.954620 -3.980944 6.752656 -0.000011 0.000008 0.000003 0.000000 -0.000000 0.000001 9.147957 -12.579518 67.042357 0.700934 6.113660 106.549722 0.000005 0.000003 0.000003 -0.000001 0.000000 0.000001 -6.017161 -0.259698 69.713378 -7.469004 -4.461814 96.298578 0.000002 -0.000008 0.000002 -0.000001 -0.000000 0.000000 -14.486022 -2.835586 62.885183 -6.469330 -3.014434 97.050622 0.000002 0.000002 0.000004 0.000000 -0.000000 0.000000 -1.456969 -4.650305 13.449892 34.302262 0.516839 -1.148142 -21.307830 -0.012055 -9.567136 -11.789576 -0.190588 0.588743 -0.000000 -0.000000 -0.000000 -30.833052 -5.524631 -6.492923 28.128549 0.309552 1.169758 5.624343 -12.892400 5.035992 0.003479 0.024842 -0.082399 0.000000 -0.000000 -0.000000 
-0.725250 189.412613 -1.715154 -1.622341 12.305335 -3.261311 6.564610 0.817084 1.241709 13.113052 1.541966 2.462928 13.113047 1.541964 2.462929 -16.254607 -3.663997 0.584543 -14.542934 0.360669 -2.106161 0.000000 0.000001 -0.000000 0.000000 0.000001 -0.000000 0.000000 0.000001 -0.000000 1.336403 5.817592 16.467789 -27.876271 -11.795551 -85.475412 5.462758 -65.672556 4.980038 7.909645 -11.463723 -4.139537 -1.277712 8.646705 -83.027889 -2.638975 -3.035710 -95.664067 -0.000003 -0.000003 0.000003 -0.000000 0.000002 0.000001 34.348431 -4.194634 -8.962156 5.203365 18.009086 -5.709916 -0.000006 0.000010 -0.000003 0.000002 -0.000000 0.000001 7.450560 13.770445 -81.739579 3.828929 -4.697060 -93.730379 -0.000002 0.000005 -0.000004 -0.000004 0.000001 -0.000000 -6.766749 -1.897036 -85.853927 -8.591867 2.521307 -82.716364 -0.000002 0.000001 -0.000010 -0.000003 -0.000001 0.000002 -14.224135 -1.438849 -78.996001 -10.266832 -1.138011 -83.218970 -0.000005 0.000009 0.000008 -0.000001 0.000001 -0.000001 8.231629 -14.768590 -7.734364 8.843740 19.784507 66.436294 2.410759 79.215011 -2.367439 -8.052412 14.306099 7.982946 0.143900 -8.325482 66.795289 -4.715813 3.466818 109.219745 0.000001 0.000001 -0.000005 0.000003 -0.000003 -0.000001 42.247708 -3.900863 0.519932 -5.037482 -4.020963 6.737394 -0.000015 0.000011 0.000002 0.000001 0.000003 -0.000000 9.185432 -12.562018 67.217019 0.700562 6.113945 106.552167 0.000002 0.000008 0.000001 -0.000003 -0.000000 0.000001 -6.026212 -0.262425 69.772015 -7.469328 -4.461354 96.293537 0.000000 -0.000011 0.000002 0.000001 0.000002 0.000003 -14.515873 -2.865804 63.024464 -6.472741 -3.010193 97.012981 0.000001 -0.000003 0.000003 -0.000001 -0.000002 0.000000 -1.293838 -5.849599 13.286052 34.124933 0.506076 -1.149282 -21.279979 0.830889 -9.501005 -11.761384 -0.258361 0.634783 0.000000 0.000001 0.000000 -30.776180 -5.784092 -6.570438 28.092244 0.305544 1.169758 5.383866 -13.133454 5.105398 0.045829 0.139596 -0.095994 -0.000000 -0.000001 0.000000 
-0.864527 189.511856 -1.549283 -1.452446 12.961986 -3.281683 6.572517 0.840243 1.307078 13.127508 1.600614 2.584088 13.127492 1.600611 2.584089 -16.666029 -0.663114 1.107160 -14.448391 3.571983 -2.559157 0.000000 -0.000001 -0.000000 0.000000 -0.000001 -0.000000 0.000000 -0.000001 -0.000000 1.318007 5.975231 16.722332 -28.533692 -12.001482 -85.729529 5.498592 -65.164157 4.992555 8.692526 -11.590878 -4.736028 -1.283318 8.643099 -83.069628 -2.639362 -3.035945 -95.670432 -0.000003 0.000000 0.000006 -0.000004 0.000001 0.000001 34.226341 -4.297135 -8.870814 5.177010 18.029256 -5.687734 -0.000004 0.000010 -0.000003 0.000000 0.000001 0.000000 7.445493 13.756241 -81.802710 3.816940 -4.695663 -93.850180 -0.000000 0.000001 -0.000002 0.000001 -0.000002 -0.000001 -6.762464 -1.898398 -85.831668 -8.586688 2.533135 -82.876887 0.000001 0.000000 -0.000010 -0.000002 -0.000002 0.000001 -14.230309 -1.432684 -79.023772 -10.263869 -1.137499 -83.316348 -0.000003 0.000009 0.000009 0.000000 -0.000001 -0.000001 8.233481 -14.760534 -7.668995 9.031786 20.121519 65.923900 2.416187 79.239258 -2.372892 -8.658357 14.649146 7.877883 0.159475 -8.332273 66.795452 -4.714089 3.466521 109.195443 0.000000 0.000008 -0.000004 -0.000001 0.000001 -0.000000 42.258428 -3.795689 0.597799 -5.153680 -4.082292 6.737660 -0.000013 0.000010 0.000004 0.000000 0.000000 -0.000000 9.198025 -12.533296 67.393060 0.700092 6.114285 106.555117 0.000009 0.000002 0.000002 0.000001 0.000001 -0.000002 -6.033301 -0.264573 69.817811 -7.469505 -4.461153 96.291153 0.000001 -0.000002 0.000006 0.000001 -0.000003 -0.000000 -14.536987 -2.887289 63.123072 -6.468162 -3.013215 97.067636 0.000003 0.000001 0.000005 -0.000002 0.000003 0.000000 -1.232359 -6.899661 13.176953 33.849653 0.515615 -1.148241 -21.171355 1.236865 -9.493282 -11.751731 -0.256401 0.632714 0.000000 -0.000000 0.000000 -30.740581 -6.055168 -6.761196 28.045126 0.298834 1.165731 5.184401 -13.472749 5.195378 0.061940 0.172223 -0.117961 0.000000 0.000000 0.000000 
-1.031938 189.665207 -1.390093 -1.262152 13.857555 -3.262768 6.576063 0.898001 1.356750 13.132705 1.728669 2.671399 13.132695 1.728668 2.671398 -17.263112 2.699483 1.408351 -13.965722 6.863591 -2.673831 -0.000000 -0.000003 -0.000000 -0.000000 -0.000003 -0.000000 -0.000000 -0.000003 -0.000000 1.291297 6.181503 16.977895 -29.432709 -12.218309 -85.992963 5.571835 -64.633110 5.037332 9.623904 -11.534960 -5.687211 -1.285563 8.644024 -83.052286 -2.641560 -3.037170 -95.704617 -0.000001 0.000002 0.000004 -0.000002 0.000001 -0.000000 34.150768 -4.384126 -8.831889 5.107573 18.125263 -5.667613 -0.000005 0.000012 -0.000001 0.000000 -0.000001 0.000001 7.463591 13.745245 -81.879597 3.807524 -4.694931 -93.957305 0.000002 0.000003 -0.000005 -0.000002 0.000000 0.000001 -6.759545 -1.899262 -85.816443 -8.581684 2.544375 -83.030081 -0.000000 0.000007 -0.000010 0.000000 -0.000001 0.000001 -14.231082 -1.428458 -79.040991 -10.261392 -1.136859 -83.399649 -0.000003 0.000011 0.000004 -0.000001 -0.000000 -0.000002 8.239798 -14.695550 -7.630461 9.240540 20.381645 65.639914 2.398831 79.161080 -2.355198 -9.247535 14.983075 7.938203 0.167591 -8.334812 66.803574 -4.714285 3.466550 109.198046 0.000002 0.000006 -0.000006 0.000005 -0.000001 0.000000 42.260156 -3.743555 0.632480 -5.237929 -4.123555 6.723023 -0.000012 0.000014 0.000004 0.000001 0.000001 -0.000001 9.231381 -12.510501 67.585671 0.699538 6.114683 106.558546 0.000004 0.000003 0.000002 0.000001 -0.000004 -0.000002 -6.039064 -0.266317 69.855145 -7.466693 -4.464922 96.333630 0.000003 -0.000000 0.000004 -0.000001 -0.000001 -0.000002 -14.560947 -2.911742 63.235339 -6.478479 -3.020810 96.921586 0.000003 -0.000004 0.000003 -0.000002 0.000001 0.000000 -1.283428 -7.846366 13.147702 33.527097 0.544803 -1.144775 -20.966152 1.177030 -9.543431 -11.770373 -0.174117 0.575698 -0.000000 0.000001 0.000000 -30.667911 -6.407486 -7.064191 27.932018 0.288582 1.160163 5.064830 -13.902623 5.287571 0.055334 0.180287 -0.124387 -0.000000 -0.000001 0.000000 
